<svg xmlns="http://www.w3.org/2000/svg" xmlns:xlink="http://www.w3.org/1999/xlink" width="473" zoomAndPan="magnify" viewBox="0 0 354.75 56.999997" height="76" preserveAspectRatio="xMidYMid meet" version="1.0"><defs><g/><clipPath id="df6b4c921f"><path d="M 1 1 L 354.5 1 L 354.5 55 L 1 55 Z M 1 1 " clip-rule="nonzero"/></clipPath><clipPath id="8802065894"><path d="M 2.367188 3.605469 L 77 3.605469 L 77 51.394531 L 2.367188 51.394531 Z M 2.367188 3.605469 " clip-rule="nonzero"/></clipPath><clipPath id="5e162ac192"><path d="M 26.769531 3.605469 L 72.410156 3.605469 C 73.917969 3.605469 75.324219 4.359375 76.164062 5.609375 C 77 6.863281 77.160156 8.449219 76.585938 9.84375 L 62.019531 45.15625 C 60.460938 48.929688 56.78125 51.394531 52.699219 51.394531 L 7.058594 51.394531 C 5.550781 51.394531 4.144531 50.640625 3.308594 49.390625 C 2.46875 48.136719 2.3125 46.550781 2.886719 45.15625 L 17.453125 9.84375 C 19.007812 6.070312 22.6875 3.605469 26.769531 3.605469 Z M 26.769531 3.605469 " clip-rule="nonzero"/></clipPath><clipPath id="fa77317da1"><path d="M 0.367188 0.605469 L 75 0.605469 L 75 48.394531 L 0.367188 48.394531 Z M 0.367188 0.605469 " clip-rule="nonzero"/></clipPath><clipPath id="3e57aa8e45"><path d="M 24.769531 0.605469 L 70.410156 0.605469 C 71.917969 0.605469 73.324219 1.359375 74.164062 2.609375 C 75 3.863281 75.160156 5.449219 74.585938 6.84375 L 60.019531 42.15625 C 58.460938 45.929688 54.78125 48.394531 50.699219 48.394531 L 5.058594 48.394531 C 3.550781 48.394531 2.144531 47.640625 1.308594 46.390625 C 0.46875 45.136719 0.3125 43.550781 0.886719 42.15625 L 15.453125 6.84375 C 17.007812 3.070312 20.6875 0.605469 24.769531 0.605469 Z M 24.769531 0.605469 " clip-rule="nonzero"/></clipPath><clipPath id="55c0dcae29"><rect x="0" width="75" y="0" height="49"/></clipPath><clipPath id="fb60a993f1"><path d="M 16 12 L 60 12 L 60 45 L 16 45 Z M 16 12 " clip-rule="nonzero"/></clipPath><clipPath id="83849c346b"><path d="M 9.90625 25.53125 L 52.003906 3.609375 L 66.019531 30.523438 L 23.921875 52.445312 Z M 9.90625 25.53125 " clip-rule="nonzero"/></clipPath><clipPath id="6cae18ea13"><path d="M 9.90625 25.53125 L 52.003906 3.609375 L 66.019531 30.523438 L 23.921875 52.445312 Z M 9.90625 25.53125 " clip-rule="nonzero"/></clipPath><clipPath id="097407ba72"><path d="M 79 0.699219 L 353.5 0.699219 L 353.5 53.460938 L 79 53.460938 Z M 79 0.699219 " clip-rule="nonzero"/></clipPath><clipPath id="2acc464380"><rect x="0" width="275" y="0" height="54"/></clipPath><clipPath id="91b24279a7"><rect x="0" width="354" y="0" height="54"/></clipPath></defs><g clip-path="url(#df6b4c921f)"><g transform="matrix(1, 0, 0, 1, 1, 1)"><g clip-path="url(#91b24279a7)"><g clip-path="url(#8802065894)"><g clip-path="url(#5e162ac192)"><g transform="matrix(1, 0, 0, 1, 2, 3)"><g clip-path="url(#55c0dcae29)"><g clip-path="url(#fa77317da1)"><g clip-path="url(#3e57aa8e45)"><path fill="#ff3131" d="M -1.6875 0.605469 L 77.085938 0.605469 L 77.085938 48.394531 L -1.6875 48.394531 Z M -1.6875 0.605469 " fill-opacity="1" fill-rule="nonzero"/></g></g></g></g></g></g><g clip-path="url(#fb60a993f1)"><g clip-path="url(#83849c346b)"><g clip-path="url(#6cae18ea13)"><path fill="#ffffff" d="M 30.792969 43.40625 C 30.410156 43.605469 29.953125 43.65625 29.507812 43.519531 L 18.15625 39.941406 C 17.269531 39.660156 16.777344 38.714844 17.058594 37.828125 L 20.636719 26.480469 C 20.914062 25.59375 21.859375 25.101562 22.746094 25.378906 C 23.632812 25.660156 24.125 26.605469 23.84375 27.492188 L 20.773438 37.238281 L 30.519531 40.308594 C 31.40625 40.585938 31.898438 41.53125 31.621094 42.417969 C 31.480469 42.863281 31.171875 43.207031 30.792969 43.40625 Z M 40.585938 43.996094 C 40.414062 44.089844 40.21875 44.148438 40.015625 44.175781 C 39.089844 44.289062 38.25 43.628906 38.140625 42.707031 L 34.660156 14.160156 C 34.546875 13.234375 35.203125 12.398438 36.125 12.285156 C 37.046875 12.171875 37.886719 12.828125 38 13.75 L 41.480469 42.300781 C 41.566406 43.015625 41.191406 43.683594 40.585938 43.996094 Z M 54.675781 30.96875 C 54.292969 31.167969 53.835938 31.21875 53.394531 31.082031 C 52.507812 30.800781 52.015625 29.855469 52.292969 28.96875 L 55.367188 19.222656 L 45.621094 16.152344 C 44.734375 15.871094 44.242188 14.929688 44.519531 14.042969 C 44.800781 13.15625 45.746094 12.664062 46.632812 12.941406 L 57.984375 16.519531 C 58.867188 16.800781 59.359375 17.742188 59.082031 18.628906 L 55.503906 29.980469 C 55.363281 30.425781 55.058594 30.769531 54.675781 30.96875 Z M 54.675781 30.96875 " fill-opacity="1" fill-rule="nonzero"/></g></g></g><g clip-path="url(#097407ba72)"><g transform="matrix(1, 0, 0, 1, 79, 0.000000000000000444)"><g clip-path="url(#2acc464380)"><g fill="#ffffff" fill-opacity="1"><g transform="translate(0.156734, 42.812381)"><g><path d="M 3.15625 -29.328125 L 10.296875 -29.328125 L 24.484375 -9.3125 L 24.484375 -29.328125 L 30.765625 -29.328125 L 30.765625 0 L 23.640625 0 L 9.4375 -20.328125 L 9.4375 0 L 3.15625 0 Z M 3.15625 -29.328125 "/></g></g></g><g fill="#ffffff" fill-opacity="1"><g transform="translate(34.094977, 42.812381)"><g><path d="M 3.15625 -29.328125 L 14.90625 -29.328125 C 17.769531 -29.328125 20.035156 -29.128906 21.703125 -28.734375 C 23.378906 -28.347656 24.601562 -27.664062 25.375 -26.6875 C 26.144531 -25.707031 26.53125 -24.34375 26.53125 -22.59375 L 26.53125 -17.03125 C 26.53125 -15.101562 26.113281 -13.597656 25.28125 -12.515625 C 24.457031 -11.429688 23.144531 -10.660156 21.34375 -10.203125 C 19.550781 -9.753906 17.132812 -9.53125 14.09375 -9.53125 L 10.21875 -9.53125 L 10.21875 0 L 3.15625 0 Z M 14.6875 -14.375 C 16.519531 -14.375 17.8125 -14.59375 18.5625 -15.03125 C 19.320312 -15.46875 19.703125 -16.210938 19.703125 -17.265625 L 19.703125 -21.96875 C 19.703125 -22.925781 19.34375 -23.554688 18.625 -23.859375 C 17.925781 -24.160156 16.582031 -24.3125 14.59375 -24.3125 L 10.21875 -24.3125 L 10.21875 -14.375 Z M 14.6875 -14.375 "/></g></g></g><g fill="#ffffff" fill-opacity="1"><g transform="translate(62.429565, 42.812381)"><g><path d="M 3.15625 -29.328125 L 10.21875 -29.328125 L 10.21875 -5.015625 L 24.625 -5.015625 L 24.625 0 L 3.15625 0 Z M 3.15625 -29.328125 "/></g></g></g><g fill="#00004d" fill-opacity="1"><g transform="translate(88.641248, 42.812381)"><g/></g></g><g fill="#55565a" fill-opacity="1"><g transform="translate(99.040169, 42.812381)"><g><path d="M 12.65625 0.453125 C 9.851562 0.453125 6.390625 0.179688 2.265625 -0.359375 L 2.265625 -5.734375 C 7.378906 -4.953125 10.875 -4.5625 12.75 -4.5625 C 16.664062 -4.5625 18.625 -5.570312 18.625 -7.59375 L 18.625 -9.484375 C 18.625 -10.453125 18.34375 -11.191406 17.78125 -11.703125 C 17.21875 -12.210938 16.21875 -12.46875 14.78125 -12.46875 L 11.34375 -12.46875 C 4.894531 -12.46875 1.671875 -15.03125 1.671875 -20.15625 L 1.671875 -22.328125 C 1.671875 -24.878906 2.738281 -26.757812 4.875 -27.96875 C 7.019531 -29.175781 10.410156 -29.78125 15.046875 -29.78125 C 17.453125 -29.78125 20.507812 -29.582031 24.21875 -29.1875 L 24.21875 -23.953125 C 19.664062 -24.492188 16.535156 -24.765625 14.828125 -24.765625 C 12.441406 -24.765625 10.84375 -24.566406 10.03125 -24.171875 C 9.15625 -23.753906 8.71875 -23.09375 8.71875 -22.1875 L 8.71875 -20.109375 C 8.71875 -18.566406 10.015625 -17.796875 12.609375 -17.796875 L 16.125 -17.796875 C 19.46875 -17.796875 21.894531 -17.175781 23.40625 -15.9375 C 24.914062 -14.707031 25.671875 -12.828125 25.671875 -10.296875 L 25.671875 -8.359375 C 25.671875 -4.867188 24.421875 -2.503906 21.921875 -1.265625 C 20.710938 -0.628906 19.375 -0.1875 17.90625 0.0625 C 16.445312 0.320312 14.695312 0.453125 12.65625 0.453125 Z M 12.65625 0.453125 "/></g></g></g><g fill="#55565a" fill-opacity="1"><g transform="translate(126.42575, 42.812381)"><g><path d="M 16.125 0.453125 C 14.800781 0.453125 13.617188 0.390625 12.578125 0.265625 C 11.546875 0.148438 10.410156 -0.0703125 9.171875 -0.40625 C 7.785156 -0.769531 6.640625 -1.242188 5.734375 -1.828125 C 4.835938 -2.421875 4.085938 -3.242188 3.484375 -4.296875 C 2.847656 -5.347656 2.53125 -6.597656 2.53125 -8.046875 L 2.53125 -20.921875 C 2.53125 -26.828125 7.0625 -29.78125 16.125 -29.78125 C 18.445312 -29.78125 21.550781 -29.445312 25.4375 -28.78125 L 25.4375 -23.5 C 21.945312 -24.34375 18.875 -24.765625 16.21875 -24.765625 C 15.101562 -24.765625 14.238281 -24.734375 13.625 -24.671875 C 13.007812 -24.609375 12.367188 -24.457031 11.703125 -24.21875 C 10.285156 -23.738281 9.578125 -22.671875 9.578125 -21.015625 L 9.578125 -8.546875 C 9.578125 -5.890625 12.003906 -4.5625 16.859375 -4.5625 C 18.929688 -4.5625 21.851562 -5 25.625 -5.875 L 25.625 -0.546875 C 22.394531 0.117188 19.226562 0.453125 16.125 0.453125 Z M 16.125 0.453125 "/></g></g></g><g fill="#55565a" fill-opacity="1"><g transform="translate(153.404619, 42.812381)"><g><path d="M 16.40625 0.453125 C 14.78125 0.453125 13.28125 0.34375 11.90625 0.125 C 10.53125 -0.0820312 9.109375 -0.441406 7.640625 -0.953125 C 6.035156 -1.492188 4.78125 -2.375 3.875 -3.59375 C 2.976562 -4.8125 2.53125 -6.296875 2.53125 -8.046875 L 2.53125 -20.875 C 2.53125 -22.320312 2.851562 -23.617188 3.5 -24.765625 C 4.144531 -25.910156 4.984375 -26.8125 6.015625 -27.46875 C 6.910156 -28.039062 8.019531 -28.519531 9.34375 -28.90625 C 10.675781 -29.300781 11.914062 -29.546875 13.0625 -29.640625 C 14.113281 -29.734375 15.226562 -29.78125 16.40625 -29.78125 C 17.789062 -29.78125 18.992188 -29.726562 20.015625 -29.625 C 21.035156 -29.519531 22.179688 -29.300781 23.453125 -28.96875 C 24.898438 -28.539062 26.085938 -28.023438 27.015625 -27.421875 C 27.953125 -26.828125 28.738281 -25.984375 29.375 -24.890625 C 30.03125 -23.773438 30.359375 -22.4375 30.359375 -20.875 L 30.359375 -8.046875 C 30.359375 -6.421875 29.929688 -5.019531 29.078125 -3.84375 C 28.222656 -2.664062 27.039062 -1.773438 25.53125 -1.171875 C 22.820312 -0.0859375 19.78125 0.453125 16.40625 0.453125 Z M 16.5 -4.5625 C 17.488281 -4.5625 18.320312 -4.597656 19 -4.671875 C 19.675781 -4.753906 20.378906 -4.898438 21.109375 -5.109375 C 21.828125 -5.316406 22.375 -5.664062 22.75 -6.15625 C 23.125 -6.65625 23.3125 -7.285156 23.3125 -8.046875 L 23.3125 -20.921875 C 23.3125 -22.304688 22.753906 -23.289062 21.640625 -23.875 C 20.523438 -24.46875 18.796875 -24.765625 16.453125 -24.765625 C 14.097656 -24.765625 12.363281 -24.476562 11.25 -23.90625 C 10.132812 -23.332031 9.578125 -22.335938 9.578125 -20.921875 L 9.578125 -8.046875 C 9.578125 -7.285156 9.769531 -6.65625 10.15625 -6.15625 C 10.550781 -5.664062 11.128906 -5.316406 11.890625 -5.109375 C 12.609375 -4.898438 13.304688 -4.753906 13.984375 -4.671875 C 14.660156 -4.597656 15.5 -4.5625 16.5 -4.5625 Z M 16.5 -4.5625 "/></g></g></g><g fill="#55565a" fill-opacity="1"><g transform="translate(186.303475, 42.812381)"><g><path d="M 3.15625 -29.328125 L 16.359375 -29.328125 C 20.273438 -29.328125 23.101562 -28.851562 24.84375 -27.90625 C 26.59375 -26.957031 27.46875 -25.367188 27.46875 -23.140625 L 27.46875 -17.984375 C 27.46875 -16.265625 26.859375 -14.914062 25.640625 -13.9375 C 24.421875 -12.957031 22.800781 -12.332031 20.78125 -12.0625 L 29.28125 0 L 21.140625 0 L 13.46875 -11.515625 L 10.21875 -11.515625 L 10.21875 0 L 3.15625 0 Z M 16.265625 -16.171875 C 17.921875 -16.171875 19.050781 -16.390625 19.65625 -16.828125 C 20.257812 -17.265625 20.5625 -18.117188 20.5625 -19.390625 L 20.5625 -21.46875 C 20.5625 -22.550781 20.238281 -23.296875 19.59375 -23.703125 C 18.945312 -24.109375 17.835938 -24.3125 16.265625 -24.3125 L 10.21875 -24.3125 L 10.21875 -16.171875 Z M 16.265625 -16.171875 "/></g></g></g><g fill="#55565a" fill-opacity="1"><g transform="translate(216.490883, 42.812381)"><g><path d="M 3.15625 -29.328125 L 25.53125 -29.328125 L 25.53125 -24.3125 L 10.21875 -24.3125 L 10.21875 -17.578125 L 24.046875 -17.578125 L 24.046875 -12.5625 L 10.21875 -12.5625 L 10.21875 -5.015625 L 25.984375 -5.015625 L 25.984375 0 L 3.15625 0 Z M 3.15625 -29.328125 "/></g></g></g><g fill="#55565a" fill-opacity="1"><g transform="translate(244.057233, 42.812381)"><g><path d="M 12.65625 0.453125 C 9.851562 0.453125 6.390625 0.179688 2.265625 -0.359375 L 2.265625 -5.734375 C 7.378906 -4.953125 10.875 -4.5625 12.75 -4.5625 C 16.664062 -4.5625 18.625 -5.570312 18.625 -7.59375 L 18.625 -9.484375 C 18.625 -10.453125 18.34375 -11.191406 17.78125 -11.703125 C 17.21875 -12.210938 16.21875 -12.46875 14.78125 -12.46875 L 11.34375 -12.46875 C 4.894531 -12.46875 1.671875 -15.03125 1.671875 -20.15625 L 1.671875 -22.328125 C 1.671875 -24.878906 2.738281 -26.757812 4.875 -27.96875 C 7.019531 -29.175781 10.410156 -29.78125 15.046875 -29.78125 C 17.453125 -29.78125 20.507812 -29.582031 24.21875 -29.1875 L 24.21875 -23.953125 C 19.664062 -24.492188 16.535156 -24.765625 14.828125 -24.765625 C 12.441406 -24.765625 10.84375 -24.566406 10.03125 -24.171875 C 9.15625 -23.753906 8.71875 -23.09375 8.71875 -22.1875 L 8.71875 -20.109375 C 8.71875 -18.566406 10.015625 -17.796875 12.609375 -17.796875 L 16.125 -17.796875 C 19.46875 -17.796875 21.894531 -17.175781 23.40625 -15.9375 C 24.914062 -14.707031 25.671875 -12.828125 25.671875 -10.296875 L 25.671875 -8.359375 C 25.671875 -4.867188 24.421875 -2.503906 21.921875 -1.265625 C 20.710938 -0.628906 19.375 -0.1875 17.90625 0.0625 C 16.445312 0.320312 14.695312 0.453125 12.65625 0.453125 Z M 12.65625 0.453125 "/></g></g></g><g fill="#00004d" fill-opacity="1"><g transform="translate(271.453818, 42.812381)"><g/></g></g></g></g></g></g></g></g></svg>